# xmcd
#
# Track frame offsets:
# 150
# 8672
# 24087
# 35695
# 51030
# 64842
# 76115
# 89622
# 110077
# 122829
# 134710
# 147910
# 163670
# 181117
# 197959
# 208309
#
# Disc length: 3072 seconds
#
#
# Revision: 0
# Processed by: cddbd v1.5.1PL0 Copyright (c) Steve Scherf et al.
# Submitted via: FreeRIP 2.80 
#
DISCID=e40bfe10
DTITLE=Various Artist - The Romance of European Love Songs Vol.2 France
DYEAR=1900
DGENRE=
TTITLE0=Voici Le Mois De Mai
TTITLE1=Vive La Rose
TTITLE2=Mes Belles Amourenttes
TTITLE3=Va Mon Ami Va
TTITLE4=Forteresse
TTITLE5=Ah Si-Mon Moine
TTITLE6=Mon Coeur Est Un Violin
TTITLE7=La Vie En Rose
TTITLE8=Quand Refleuriront Les Lilas Blances
TTITLE9=Mademoiselle De Paris
TTITLE10=Fais-Moi Une Place
TTITLE11=Je Me Reconnais En Toi
TTITLE12=Le Roi A Fait Battre Tambour
TTITLE13=Qui Plus Que Nous
TTITLE14=Des Ronds Dans L'eau
TTITLE15=Tu N'es Plus La Cet Automne
EXTD=
EXTT0=
EXTT1=
EXTT2=
EXTT3=
EXTT4=
EXTT5=
EXTT6=
EXTT7=
EXTT8=
EXTT9=
EXTT10=
EXTT11=
EXTT12=
EXTT13=
EXTT14=
EXTT15=
PLAYORDER=
